# xmcd
#
# Track frame offsets: 
#        150
#        17869
#        36443
#        50398
#        68203
#        78702
#
# Disc length: 1249 seconds
#
# Revision: 0
# Processed by: cddbd v1.5.2PL0 Copyright (c) Steve Scherf et al.
# Submitted via: ExactAudioCopy v0.99pb4
#
DISCID=4e04df06
DTITLE=Przytu³a and Kruk - Demo
DYEAR=1900
DGENRE=Blues
TTITLE0=Can't be satisfied
TTITLE1=Dust My Broom
TTITLE2=Little Red Rooster
TTITLE3=Poor Barty Blues
TTITLE4=Make Me A Pallet On Your Floor
TTITLE5=TYrouble In Mind
EXTD=
EXTT0=
EXTT1=
EXTT2=
EXTT3=
EXTT4=
EXTT5=
PLAYORDER=
